HIERARCHY
ROOT hip
{
  OFFSET 0 0 0
  CHANNELS 6 Xposition Yposition Zposition Zrotation Yrotation Xrotation
  JOINT abdomen
  {
    OFFSET 0 20.6881 -0.73152
    CHANNELS 3 Zrotation Xrotation Yrotation
    JOINT chest
    {
      OFFSET 0 11.7043 -0.48768
      CHANNELS 3 Zrotation Xrotation Yrotation
      JOINT neck
      {
        OFFSET 0 22.1894 -2.19456
        CHANNELS 3 Zrotation Xrotation Yrotation
        JOINT head
        {
          OFFSET -0.24384 7.07133 1.2192
          CHANNELS 3 Zrotation Xrotation Yrotation
          JOINT leftEye
          {
            OFFSET 4.14528 8.04674 8.04672
            CHANNELS 3 Zrotation Xrotation Yrotation
            End Site
            {
              OFFSET 1 0 0
            }
          }
          JOINT rightEye
          {
            OFFSET -3.6576 8.04674 8.04672
            CHANNELS 3 Zrotation Xrotation Yrotation
            End Site
            {
              OFFSET 1 0 0
            }
          }
        }
      }
      JOINT rCollar
      {
        OFFSET -2.68224 19.2634 -4.8768
        CHANNELS 3 Zrotation Xrotation Yrotation
        JOINT rShldr
        {
          OFFSET -8.77824 -1.95073 1.46304
          CHANNELS 3 Zrotation Xrotation Yrotation
          JOINT rForeArm
          {
            OFFSET -28.1742 -1.7115 0.48768
            CHANNELS 3 Zrotation Xrotation Yrotation
            JOINT rHand
            {
              OFFSET -22.5879 0.773209 7.07136
              CHANNELS 3 Zrotation Xrotation Yrotation
              JOINT rThumb1
              {
                OFFSET -1.2192 -0.487915 3.41376
                CHANNELS 3 Zrotation Xrotation Yrotation
                JOINT rThumb2
                {
                  OFFSET -3.37035 -0.52449 3.41376
                  CHANNELS 3 Zrotation Xrotation Yrotation
                  End Site
                  {
                    OFFSET -1.78271 -1.18214 1.43049
                  }
                }
              }
              JOINT rIndex1
              {
                OFFSET -7.75947 0.938293 5.60832
                CHANNELS 3 Zrotation Xrotation Yrotation
                JOINT rIndex2
                {
                  OFFSET -2.54057 -0.884171 1.56538
                  CHANNELS 3 Zrotation Xrotation Yrotation
                  End Site
                  {
                    OFFSET -1.62519 -0.234802 1.16502
                  }
                }
              }
              JOINT rMid1
              {
                OFFSET -8.24714 1.18213 3.41376
                CHANNELS 3 Zrotation Xrotation Yrotation
                JOINT rMid2
                {
                  OFFSET -3.10165 -0.590103 1.0647
                  CHANNELS 3 Zrotation Xrotation Yrotation
                  End Site
                  {
                    OFFSET -2.48547 -0.328903 0.83742
                  }
                }
              }
              JOINT rRing1
              {
                OFFSET -8.82822 0.546677 1.51678
                CHANNELS 3 Zrotation Xrotation Yrotation
                JOINT rRing2
                {
                  OFFSET -2.60934 -0.819778 -0.0198488
                  CHANNELS 3 Zrotation Xrotation Yrotation
                  End Site
                  {
                    OFFSET -2.33842 -0.294052 0.168128
                  }
                }
              }
              JOINT rPinky1
              {
                OFFSET -8.27202 -0.0477905 -0.4584
                CHANNELS 3 Zrotation Xrotation Yrotation
                JOINT rPinky2
                {
                  OFFSET -1.82734 -0.647385 -0.700984
                  CHANNELS 3 Zrotation Xrotation Yrotation
                  End Site
                  {
                    OFFSET -1.69225 -0.51767 -0.607171
                  }
                }
              }
            }
          }
        }
      }
      JOINT lCollar
      {
        OFFSET 2.68224 19.2634 -4.8768
        CHANNELS 3 Zrotation Xrotation Yrotation
        JOINT lShldr
        {
          OFFSET 8.77824 -1.95073 1.46304
          CHANNELS 3 Zrotation Xrotation Yrotation
          JOINT lForeArm
          {
            OFFSET 28.1742 -1.7115 0.48768
            CHANNELS 3 Zrotation Xrotation Yrotation
            JOINT lHand
            {
              OFFSET 22.5879 0.773209 7.07136
              CHANNELS 3 Zrotation Xrotation Yrotation
              JOINT lThumb1
              {
                OFFSET 1.2192 -0.487915 3.41376
                CHANNELS 3 Zrotation Xrotation Yrotation
                JOINT lThumb2
                {
                  OFFSET 3.37035 -0.52449 3.41376
                  CHANNELS 3 Zrotation Xrotation Yrotation
                  End Site
                  {
                    OFFSET 1.78271 -1.18214 1.43049
                  }
                }
              }
              JOINT lIndex1
              {
                OFFSET 7.75947 0.938293 5.60832
                CHANNELS 3 Zrotation Xrotation Yrotation
                JOINT lIndex2
                {
                  OFFSET 2.54057 -0.884171 1.56538
                  CHANNELS 3 Zrotation Xrotation Yrotation
                  End Site
                  {
                    OFFSET 1.62519 -0.234802 1.16502
                  }
                }
              }
              JOINT lMid1
              {
                OFFSET 8.24714 1.18213 3.41376
                CHANNELS 3 Zrotation Xrotation Yrotation
                JOINT lMid2
                {
                  OFFSET 3.10165 -0.590103 1.0647
                  CHANNELS 3 Zrotation Xrotation Yrotation
                  End Site
                  {
                    OFFSET 2.48547 -0.328903 0.83742
                  }
                }
              }
              JOINT lRing1
              {
                OFFSET 8.82822 0.546677 1.51678
                CHANNELS 3 Zrotation Xrotation Yrotation
                JOINT lRing2
                {
                  OFFSET 2.60934 -0.819778 -0.0198488
                  CHANNELS 3 Zrotation Xrotation Yrotation
                  End Site
                  {
                    OFFSET 2.33842 -0.294052 0.168128
                  }
                }
              }
              JOINT lPinky1
              {
                OFFSET 8.27202 -0.0477905 -0.4584
                CHANNELS 3 Zrotation Xrotation Yrotation
                JOINT lPinky2
                {
                  OFFSET 1.82734 -0.647385 -0.700984
                  CHANNELS 3 Zrotation Xrotation Yrotation
                  End Site
                  {
                    OFFSET 1.69225 -0.51767 -0.607171
                  }
                }
              }
            }
          }
        }
      }
    }
  }
  JOINT rButtock
  {
    OFFSET -8.77824 4.35084 1.2192
    CHANNELS 3 Zrotation Xrotation Yrotation
    JOINT rThigh
    {
      OFFSET 0 -1.70687 -2.19456
      CHANNELS 3 Zrotation Xrotation Yrotation
      JOINT rShin
      {
        OFFSET 0 -36.8199 0.73152
        CHANNELS 3 Zrotation Xrotation Yrotation
        JOINT rFoot
        {
          OFFSET 0.73152 -45.1104 -5.12064
          CHANNELS 3 Zrotation Xrotation Yrotation
          End Site
          {
            OFFSET -1.1221 -3.69964 12.103
          }
        }
      }
    }
  }
  JOINT lButtock
  {
    OFFSET 8.77824 4.35084 1.2192
    CHANNELS 3 Zrotation Xrotation Yrotation
    JOINT lThigh
    {
      OFFSET 0 -1.70687 -2.19456
      CHANNELS 3 Zrotation Xrotation Yrotation
      JOINT lShin
      {
        OFFSET 0 -36.8199 0.73152
        CHANNELS 3 Zrotation Xrotation Yrotation
        JOINT lFoot
        {
          OFFSET -0.73152 -45.1104 -5.12064
          CHANNELS 3 Zrotation Xrotation Yrotation
          End Site
          {
            OFFSET 1.1221 -3.69964 12.103
          }
        }
      }
    }
  }
}
MOTION
Frames:	5
Frame Time:	0.00833333
4.81862 82.4855 53.6769 0.0 0.0 0.0 -4.35895 0.00629234 -0.117456 -1.20159 0.0324761 -0.207681 -1.61805e-14 0.0 9.93923e-16 -4.99602e-14 3.18055e-15 3.12931e-15 -0.0 0.0 0.0 -0.0 0.0 0.0 -8.00188e-15 1.38023e-16 5.46658e-16 -1.7347e-13 2.8948e-15 1.15295e-14 -2.96781e-12 1.00048e-12 2.41722e-13 -3.42597e-11 -3.46979e-13 2.22321e-12 -8.07516e-11 1.41461e-12 5.37514e-12 -1.39452e-10 2.44267e-12 9.26973e-12 -8.07451e-11 1.41892e-12 5.36242e-12 7.73091 5.47488 0.417314 -8.07498e-11 1.41515e-12 5.37196e-12 2.90554 0.965183 0.102902 -8.07368e-11 1.41535e-12 5.3656e-12 10.2786 0.731801 0.0259123 -8.07507e-11 1.41495e-12 5.3656e-12 2.22167 -0.733487 -0.20892 -8.10019e-15 1.355e-16 2.48481e-16 -1.78484e-13 2.81405e-15 9.93923e-15 -3.02113e-12 -7.7864e-13 2.51264e-13 -3.41755e-11 1.42124e-12 2.22639e-12 -8.06853e-11 1.39728e-12 5.37514e-12 -1.39335e-10 2.41086e-12 9.29199e-12 -8.06923e-11 1.40143e-12 5.38468e-12 -7.73091 5.47488 -0.417314 -8.06864e-11 1.39805e-12 5.37196e-12 -2.90554 0.965183 -0.102902 -8.06988e-11 1.39845e-12 5.37593e-12 -10.2786 0.731801 -0.0259123 -8.06879e-11 1.39467e-12 5.37196e-12 -2.22167 -0.733487 0.20892 -2.03217e-16 0.0 -3.88251e-19 -2.88804 -1.94435 0.0304135 -0.00797354 -2.07874 -0.0651009 -0.422419 4.00217 0.127139 2.03217e-16 0.0 3.88251e-19 -3.72535 -11.2507 0.483796 -0.0143134 14.7726 -0.388799 0.544805 -3.54243 0.0125122
2.56652 82.2671 51.913 -10.2319 2.5294 7.3796 -1.57281 -2.37141 0.719514 -1.96647 -1.97084 -0.0944399 -3.1386 3.71474 -3.65329 6.0394 -1.92029 -6.88562 -0.0 0.0 0.0 -0.0 0.0 0.0 -5.80934e-14 -8.76759e-14 1.35841e-14 22.7749 -6.90219 -2.65274 -2.55777 -0.955365 4.19154 0.44951 14.9727 1.85416 -1.07672e-09 3.20759e-10 5.65225e-10 -1.82825e-09 5.23712e-10 1.01526e-09 -1.07671e-09 3.20761e-10 5.65215e-10 7.73091 5.47488 0.417314 -1.07672e-09 3.20759e-10 5.65222e-10 2.90554 0.965183 0.102902 -1.07671e-09 3.20759e-10 5.65217e-10 10.2786 0.731801 0.0259123 -1.07672e-09 3.20758e-10 5.65219e-10 2.22167 -0.733487 -0.20892 -5.82149e-14 -8.76775e-14 1.33438e-14 -23.0636 -14.9047 2.95158 1.6514 -0.541145 -2.7618 -0.904748 21.4009 -2.30356 1.00766e-09 2.15393e-10 -2.62968e-10 1.70093e-09 3.4581e-10 -5.14796e-10 1.00766e-09 2.15396e-10 -2.62955e-10 -7.73091 5.47488 -0.417314 1.00766e-09 2.15395e-10 -2.62967e-10 -2.90554 0.965183 -0.102902 1.00765e-09 2.15395e-10 -2.62965e-10 -10.2786 0.731801 -0.0259123 1.00766e-09 2.15393e-10 -2.62967e-10 -2.22167 -0.733487 0.20892 -2.03217e-16 0.0 -3.88251e-19 -0.492636 -2.1721 6.67935 0.00378948 -1.70187 0.0370597 -0.998469 0.898816 -6.70559 2.03217e-16 0.0 3.88251e-19 -2.27312 -9.95711 -11.233 -0.0123669 13.9109 -0.288498 1.22847 -7.80516 12.982
2.56685 82.2688 51.9183 -10.2372 2.5352 7.3521 1.46723 -4.86113 1.61166 -2.77399 -4.09768 0.0253303 -5.93971 7.58859 -7.56747 11.925 -3.85559 -14.1919 -0.0 0.0 0.0 -0.0 0.0 0.0 -1.15015e-13 -1.84711e-13 2.86374e-14 46.1395 -14.1633 -5.59399 -5.11535 -1.95099 8.63493 -0.285771 30.7813 4.29342 -2.17679e-09 6.65779e-10 1.20308e-09 -3.69275e-09 1.08556e-09 2.15988e-09 -2.17679e-09 6.6578e-10 1.20307e-09 7.73091 5.47488 0.417314 -2.17679e-09 6.65778e-10 1.20307e-09 2.90554 0.965183 0.102902 -2.17678e-09 6.65778e-10 1.20307e-09 10.2786 0.731801 0.0259123 -2.1768e-09 6.65778e-10 1.20307e-09 2.22167 -0.733487 -0.20892 -1.15161e-13 -1.84711e-13 2.84604e-14 -45.5317 -30.6327 6.82101 3.33928 -1.10852 -5.68016 0.671664 44.0049 -6.14547 2.21999e-09 4.55706e-10 -5.4386e-10 3.75188e-09 7.32609e-10 -1.06776e-09 2.21999e-09 4.55708e-10 -5.43843e-10 -7.73091 5.47488 -0.417314 2.21999e-09 4.55708e-10 -5.43856e-10 -2.90554 0.965183 -0.102902 2.21998e-09 4.55709e-10 -5.43854e-10 -10.2786 0.731801 -0.0259123 2.21999e-09 4.55709e-10 -5.43855e-10 -2.22167 -0.733487 0.20892 -2.03217e-16 0.0 -3.88251e-19 2.11175 -2.36278 13.7108 0.0148266 -1.30211 0.145062 -2.40504 -2.29988 -13.9353 2.03217e-16 0.0 3.88251e-19 -0.151147 -8.23223 -23.5018 -0.00699409 12.9975 -0.183541 4.00214 -11.3704 27.0034
2.56714 82.2699 51.9186 -10.2361 2.5341 7.3495 4.20914 -7.12114 2.41021 -3.47242 -5.97748 0.132932 -7.98196 10.9615 -11.1427 16.7617 -5.42888 -20.7425 -0.0 0.0 0.0 -0.0 0.0 0.0 -1.58277e-13 -2.63304e-13 3.96591e-14 66.3041 -20.5229 -8.43968 -7.25727 -2.80481 12.5882 -2.55294 44.6898 7.56948 -3.06865e-09 9.59448e-10 1.68492e-09 -5.20583e-09 1.56625e-09 3.02724e-09 -3.06865e-09 9.59446e-10 1.68492e-09 7.73091 5.47488 0.417314 -3.06865e-09 9.59445e-10 1.68492e-09 2.90554 0.965183 0.102902 -3.06864e-09 9.59446e-10 1.68492e-09 10.2786 0.731801 0.0259123 -3.06866e-09 9.59445e-10 1.68492e-09 2.22167 -0.733487 -0.20892 -1.58444e-13 -2.63303e-13 3.95345e-14 -63.0738 -44.1417 11.9661 4.79824 -1.60836 -8.28831 7.84189 63.5117 -14.551 3.18436e-09 6.43385e-10 -7.99654e-10 5.38146e-09 1.03261e-09 -1.56297e-09 3.18436e-09 6.43386e-10 -7.99634e-10 -7.73091 5.47488 -0.417314 3.18436e-09 6.43388e-10 -7.99646e-10 -2.90554 0.965183 -0.102902 3.18435e-09 6.43388e-10 -7.99646e-10 -10.2786 0.731801 -0.0259123 3.18436e-09 6.4339e-10 -7.99646e-10 -2.22167 -0.733487 0.20892 -2.03217e-16 0.0 -3.88251e-19 4.45017 -2.51142 19.9828 0.0232833 -0.94811 0.241279 -4.33088 -4.95778 -20.4478 2.03217e-16 0.0 3.88251e-19 2.24526 -6.56597 -34.3908 0.000778364 12.1873 -0.0902485 7.96439 -13.1686 39.798
2.569 82.2677 51.9096 -10.2235 2.5346 7.3914 6.05934 -8.81237 2.95924 -3.91511 -7.23974 0.209057 -9.14245 13.2559 -13.6967 19.9191 -6.413 -25.3227 -0.0 0.0 0.0 -0.0 0.0 0.0 -1.6739e-13 -2.95793e-13 4.06018e-14 79.9473 -24.8063 -10.5815 -8.65536 -3.36343 15.303 -5.71331 54.0506 11.1745 -3.43996e-09 1.12474e-09 1.77677e-09 -5.84033e-09 1.84402e-09 3.20147e-09 -3.43996e-09 1.12473e-09 1.77676e-09 7.73091 5.47488 0.417314 -3.43996e-09 1.12473e-09 1.77677e-09 2.90554 0.965183 0.102902 -3.43996e-09 1.12473e-09 1.77676e-09 10.2786 0.731801 0.0259123 -3.43997e-09 1.12473e-09 1.77677e-09 2.22167 -0.733487 -0.20892 -1.67573e-13 -2.95792e-13 4.05024e-14 -73.0954 -52.6277 17.3726 5.79425 -1.95363 -10.1182 25.5491 75.4143 -32.6903 3.52883e-09 6.99477e-10 -9.92702e-10 5.95762e-09 1.1156e-09 -1.91382e-09 3.52882e-09 6.99478e-10 -9.9268e-10 -7.73091 5.47488 -0.417314 3.52883e-09 6.9948e-10 -9.92692e-10 -2.90554 0.965183 -0.102902 3.52882e-09 6.9948e-10 -9.92692e-10 -10.2786 0.731801 -0.0259123 3.52883e-09 6.99483e-10 -9.92692e-10 -2.22167 -0.733487 0.20892 -2.03217e-16 0.0 -3.88251e-19 6.03295 -2.64207 24.3527 0.0281598 -0.708523 0.30809 -6.03091 -6.63976 -25.0541 2.03217e-16 0.0 3.88251e-19 4.12087 -5.44398 -42.017 0.00804415 11.6355 -0.0245263 11.3348 -13.4243 48.8093
